<mxfile host="app.diagrams.net" modified="2024-02-15T18:54:50.988Z" agent="Mozilla/5.0 (Windows NT 10.0; Win64; x64) AppleWebKit/537.36 (KHTML, like Gecko) Chrome/121.0.0.0 Safari/537.36 Edg/121.0.0.0" etag="djyojIHCsTua7VisUrtg" version="23.1.5" type="device">
  <diagram name="PÃ¡gina-1" id="bsRN9cq0f0hHZhaM3_Zt">
    <mxGraphModel dx="1342" dy="740" grid="1" gridSize="10" guides="1" tooltips="1" connect="1" arrows="1" fold="1" page="1" pageScale="1" pageWidth="827" pageHeight="1169" math="0" shadow="0">
      <root>
        <mxCell id="0" />
        <mxCell id="1" parent="0" />
        <mxCell id="lR96xyGp6J3FQe8TZl9x-45" style="edgeStyle=orthogonalEdgeStyle;rounded=0;orthogonalLoop=1;jettySize=auto;html=1;entryX=0;entryY=0.5;entryDx=0;entryDy=0;" edge="1" parent="1" source="lR96xyGp6J3FQe8TZl9x-1" target="lR96xyGp6J3FQe8TZl9x-3">
          <mxGeometry relative="1" as="geometry" />
        </mxCell>
        <mxCell id="lR96xyGp6J3FQe8TZl9x-1" value="" style="image;html=1;image=img/lib/clip_art/computers/iMac_128x128.png" vertex="1" parent="1">
          <mxGeometry x="10" y="605" width="80" height="80" as="geometry" />
        </mxCell>
        <mxCell id="lR96xyGp6J3FQe8TZl9x-31" style="edgeStyle=orthogonalEdgeStyle;rounded=0;orthogonalLoop=1;jettySize=auto;html=1;entryX=0;entryY=0.5;entryDx=0;entryDy=0;" edge="1" parent="1" source="lR96xyGp6J3FQe8TZl9x-3" target="lR96xyGp6J3FQe8TZl9x-8">
          <mxGeometry relative="1" as="geometry" />
        </mxCell>
        <mxCell id="lR96xyGp6J3FQe8TZl9x-32" style="edgeStyle=orthogonalEdgeStyle;rounded=0;orthogonalLoop=1;jettySize=auto;html=1;" edge="1" parent="1" source="lR96xyGp6J3FQe8TZl9x-3" target="lR96xyGp6J3FQe8TZl9x-15">
          <mxGeometry relative="1" as="geometry" />
        </mxCell>
        <mxCell id="lR96xyGp6J3FQe8TZl9x-33" style="edgeStyle=orthogonalEdgeStyle;rounded=0;orthogonalLoop=1;jettySize=auto;html=1;entryX=0;entryY=0.5;entryDx=0;entryDy=0;" edge="1" parent="1" source="lR96xyGp6J3FQe8TZl9x-3" target="lR96xyGp6J3FQe8TZl9x-9">
          <mxGeometry relative="1" as="geometry" />
        </mxCell>
        <mxCell id="lR96xyGp6J3FQe8TZl9x-34" style="edgeStyle=orthogonalEdgeStyle;rounded=0;orthogonalLoop=1;jettySize=auto;html=1;entryX=0;entryY=0.5;entryDx=0;entryDy=0;" edge="1" parent="1" source="lR96xyGp6J3FQe8TZl9x-3" target="lR96xyGp6J3FQe8TZl9x-10">
          <mxGeometry relative="1" as="geometry" />
        </mxCell>
        <mxCell id="lR96xyGp6J3FQe8TZl9x-35" style="edgeStyle=orthogonalEdgeStyle;rounded=0;orthogonalLoop=1;jettySize=auto;html=1;entryX=0;entryY=0.5;entryDx=0;entryDy=0;" edge="1" parent="1" source="lR96xyGp6J3FQe8TZl9x-3" target="lR96xyGp6J3FQe8TZl9x-12">
          <mxGeometry relative="1" as="geometry" />
        </mxCell>
        <mxCell id="lR96xyGp6J3FQe8TZl9x-36" style="edgeStyle=orthogonalEdgeStyle;rounded=0;orthogonalLoop=1;jettySize=auto;html=1;entryX=0;entryY=0.5;entryDx=0;entryDy=0;" edge="1" parent="1" source="lR96xyGp6J3FQe8TZl9x-3" target="lR96xyGp6J3FQe8TZl9x-13">
          <mxGeometry relative="1" as="geometry" />
        </mxCell>
        <mxCell id="lR96xyGp6J3FQe8TZl9x-37" style="edgeStyle=orthogonalEdgeStyle;rounded=0;orthogonalLoop=1;jettySize=auto;html=1;entryX=0;entryY=0.5;entryDx=0;entryDy=0;" edge="1" parent="1" source="lR96xyGp6J3FQe8TZl9x-3" target="lR96xyGp6J3FQe8TZl9x-14">
          <mxGeometry relative="1" as="geometry" />
        </mxCell>
        <mxCell id="lR96xyGp6J3FQe8TZl9x-3" value="API&lt;br&gt;Gateway" style="rounded=0;whiteSpace=wrap;html=1;fillColor=#fff2cc;strokeColor=#d6b656;" vertex="1" parent="1">
          <mxGeometry x="170" y="462" width="90" height="368" as="geometry" />
        </mxCell>
        <mxCell id="lR96xyGp6J3FQe8TZl9x-38" style="rounded=0;orthogonalLoop=1;jettySize=auto;html=1;" edge="1" parent="1" source="lR96xyGp6J3FQe8TZl9x-8" target="lR96xyGp6J3FQe8TZl9x-16">
          <mxGeometry relative="1" as="geometry" />
        </mxCell>
        <mxCell id="lR96xyGp6J3FQe8TZl9x-8" value="ms-account" style="rounded=0;whiteSpace=wrap;html=1;fillColor=#f5f5f5;fontColor=#333333;strokeColor=#666666;" vertex="1" parent="1">
          <mxGeometry x="390" y="456" width="110" height="40" as="geometry" />
        </mxCell>
        <mxCell id="lR96xyGp6J3FQe8TZl9x-39" style="rounded=0;orthogonalLoop=1;jettySize=auto;html=1;" edge="1" parent="1" source="lR96xyGp6J3FQe8TZl9x-9" target="lR96xyGp6J3FQe8TZl9x-17">
          <mxGeometry relative="1" as="geometry" />
        </mxCell>
        <mxCell id="lR96xyGp6J3FQe8TZl9x-9" value="ms-client" style="rounded=0;whiteSpace=wrap;html=1;fillColor=#f5f5f5;fontColor=#333333;strokeColor=#666666;" vertex="1" parent="1">
          <mxGeometry x="390" y="515" width="110" height="40" as="geometry" />
        </mxCell>
        <mxCell id="lR96xyGp6J3FQe8TZl9x-40" style="rounded=0;orthogonalLoop=1;jettySize=auto;html=1;" edge="1" parent="1" source="lR96xyGp6J3FQe8TZl9x-10" target="lR96xyGp6J3FQe8TZl9x-18">
          <mxGeometry relative="1" as="geometry" />
        </mxCell>
        <mxCell id="lR96xyGp6J3FQe8TZl9x-10" value="ms-credit" style="rounded=0;whiteSpace=wrap;html=1;fillColor=#f5f5f5;fontColor=#333333;strokeColor=#666666;" vertex="1" parent="1">
          <mxGeometry x="390" y="571" width="110" height="40" as="geometry" />
        </mxCell>
        <mxCell id="lR96xyGp6J3FQe8TZl9x-41" style="rounded=0;orthogonalLoop=1;jettySize=auto;html=1;" edge="1" parent="1" source="lR96xyGp6J3FQe8TZl9x-12" target="lR96xyGp6J3FQe8TZl9x-19">
          <mxGeometry relative="1" as="geometry" />
        </mxCell>
        <mxCell id="lR96xyGp6J3FQe8TZl9x-12" value="ms-product" style="rounded=0;whiteSpace=wrap;html=1;fillColor=#f5f5f5;fontColor=#333333;strokeColor=#666666;" vertex="1" parent="1">
          <mxGeometry x="390" y="626" width="110" height="40" as="geometry" />
        </mxCell>
        <mxCell id="lR96xyGp6J3FQe8TZl9x-42" style="rounded=0;orthogonalLoop=1;jettySize=auto;html=1;" edge="1" parent="1" source="lR96xyGp6J3FQe8TZl9x-13" target="lR96xyGp6J3FQe8TZl9x-20">
          <mxGeometry relative="1" as="geometry" />
        </mxCell>
        <mxCell id="lR96xyGp6J3FQe8TZl9x-13" value="ms-transaction" style="rounded=0;whiteSpace=wrap;html=1;fillColor=#f5f5f5;fontColor=#333333;strokeColor=#666666;" vertex="1" parent="1">
          <mxGeometry x="390" y="685" width="110" height="40" as="geometry" />
        </mxCell>
        <mxCell id="lR96xyGp6J3FQe8TZl9x-43" style="rounded=0;orthogonalLoop=1;jettySize=auto;html=1;" edge="1" parent="1" source="lR96xyGp6J3FQe8TZl9x-14" target="lR96xyGp6J3FQe8TZl9x-21">
          <mxGeometry relative="1" as="geometry" />
        </mxCell>
        <mxCell id="lR96xyGp6J3FQe8TZl9x-14" value="ms-yanki" style="rounded=0;whiteSpace=wrap;html=1;fillColor=#f5f5f5;fontColor=#333333;strokeColor=#666666;" vertex="1" parent="1">
          <mxGeometry x="390" y="741" width="110" height="40" as="geometry" />
        </mxCell>
        <mxCell id="lR96xyGp6J3FQe8TZl9x-44" style="rounded=0;orthogonalLoop=1;jettySize=auto;html=1;" edge="1" parent="1" source="lR96xyGp6J3FQe8TZl9x-15" target="lR96xyGp6J3FQe8TZl9x-22">
          <mxGeometry relative="1" as="geometry" />
        </mxCell>
        <mxCell id="lR96xyGp6J3FQe8TZl9x-15" value="ms-bootcoin" style="rounded=0;whiteSpace=wrap;html=1;fillColor=#f5f5f5;fontColor=#333333;strokeColor=#666666;" vertex="1" parent="1">
          <mxGeometry x="390" y="796" width="110" height="40" as="geometry" />
        </mxCell>
        <mxCell id="lR96xyGp6J3FQe8TZl9x-16" value="" style="image;html=1;image=img/lib/clip_art/computers/Database_128x128.png" vertex="1" parent="1">
          <mxGeometry x="600" y="390" width="50" height="44" as="geometry" />
        </mxCell>
        <mxCell id="lR96xyGp6J3FQe8TZl9x-17" value="" style="image;html=1;image=img/lib/clip_art/computers/Database_128x128.png" vertex="1" parent="1">
          <mxGeometry x="615" y="471" width="50" height="44" as="geometry" />
        </mxCell>
        <mxCell id="lR96xyGp6J3FQe8TZl9x-18" value="" style="image;html=1;image=img/lib/clip_art/computers/Database_128x128.png" vertex="1" parent="1">
          <mxGeometry x="615" y="540.5" width="50" height="44" as="geometry" />
        </mxCell>
        <mxCell id="lR96xyGp6J3FQe8TZl9x-19" value="" style="image;html=1;image=img/lib/clip_art/computers/Database_128x128.png" vertex="1" parent="1">
          <mxGeometry x="665" y="611" width="50" height="44" as="geometry" />
        </mxCell>
        <mxCell id="lR96xyGp6J3FQe8TZl9x-20" value="" style="image;html=1;image=img/lib/clip_art/computers/Database_128x128.png" vertex="1" parent="1">
          <mxGeometry x="610" y="680" width="50" height="44" as="geometry" />
        </mxCell>
        <mxCell id="lR96xyGp6J3FQe8TZl9x-21" value="" style="image;html=1;image=img/lib/clip_art/computers/Database_128x128.png" vertex="1" parent="1">
          <mxGeometry x="630" y="747" width="50" height="44" as="geometry" />
        </mxCell>
        <mxCell id="lR96xyGp6J3FQe8TZl9x-22" value="" style="image;html=1;image=img/lib/clip_art/computers/Database_128x128.png" vertex="1" parent="1">
          <mxGeometry x="660" y="820" width="50" height="44" as="geometry" />
        </mxCell>
        <mxCell id="lR96xyGp6J3FQe8TZl9x-24" value="Config Server" style="whiteSpace=wrap;html=1;aspect=fixed;fillColor=#d5e8d4;strokeColor=#82b366;" vertex="1" parent="1">
          <mxGeometry x="270" y="900" width="100" height="100" as="geometry" />
        </mxCell>
        <mxCell id="lR96xyGp6J3FQe8TZl9x-25" value="Service Registry" style="whiteSpace=wrap;html=1;aspect=fixed;fillColor=#d5e8d4;strokeColor=#82b366;" vertex="1" parent="1">
          <mxGeometry x="400" y="900" width="100" height="100" as="geometry" />
        </mxCell>
        <mxCell id="lR96xyGp6J3FQe8TZl9x-29" value="" style="shape=message;html=1;html=1;outlineConnect=0;labelPosition=center;verticalLabelPosition=bottom;align=center;verticalAlign=top;fillColor=#d5e8d4;strokeColor=#82b366;" vertex="1" parent="1">
          <mxGeometry x="530" y="900" width="110" height="100" as="geometry" />
        </mxCell>
        <mxCell id="lR96xyGp6J3FQe8TZl9x-30" value="Apache Kafka" style="text;html=1;align=center;verticalAlign=middle;whiteSpace=wrap;rounded=0;" vertex="1" parent="1">
          <mxGeometry x="555" y="960" width="60" height="30" as="geometry" />
        </mxCell>
        <mxCell id="lR96xyGp6J3FQe8TZl9x-46" value="" style="endArrow=none;html=1;rounded=0;exitX=0.5;exitY=0;exitDx=0;exitDy=0;entryX=0.5;entryY=0;entryDx=0;entryDy=0;edgeStyle=orthogonalEdgeStyle;" edge="1" parent="1" source="lR96xyGp6J3FQe8TZl9x-24" target="lR96xyGp6J3FQe8TZl9x-29">
          <mxGeometry width="50" height="50" relative="1" as="geometry">
            <mxPoint x="317.48" y="874" as="sourcePoint" />
            <mxPoint x="582.48" y="874" as="targetPoint" />
            <Array as="points">
              <mxPoint x="320" y="870" />
              <mxPoint x="583" y="870" />
              <mxPoint x="583" y="900" />
            </Array>
          </mxGeometry>
        </mxCell>
        <mxCell id="lR96xyGp6J3FQe8TZl9x-47" value="" style="endArrow=none;html=1;rounded=0;exitX=0.5;exitY=0;exitDx=0;exitDy=0;" edge="1" parent="1" source="lR96xyGp6J3FQe8TZl9x-25">
          <mxGeometry width="50" height="50" relative="1" as="geometry">
            <mxPoint x="330" y="870" as="sourcePoint" />
            <mxPoint x="450" y="850" as="targetPoint" />
          </mxGeometry>
        </mxCell>
      </root>
    </mxGraphModel>
  </diagram>
</mxfile>
